<svg width="1674" height="1931" viewBox="0 0 1674 1931" fill="none" xmlns="http://www.w3.org/2000/svg">
<path d="M1466.31 437.097V437.552V518.341L1536.28 477.946L1536.75 477.673L1466.31 437.097Z" fill="#71B1D9"/>
<path d="M206.93 437.55V437.554V518.341L836.618 881.892L1046.52 760.707V679.92L1116.48 720.314L1326.38 599.128V356.765L836.617 74L766.654 114.393V195.185L1186.45 437.553V518.34L1116.48 558.736L556.757 235.579L556.755 235.578L486.793 275.971V275.973V356.764L906.584 599.13V679.919L836.619 720.314L276.897 397.158L276.894 397.156L206.93 437.55Z" fill="url(#paint0_linear_501_841)"/>
<path d="M906.584 1003.08L976.549 962.681L1466.31 1245.44V679.917L1536.27 639.525L1606.24 679.921V1407.02L1536.27 1447.42L1046.52 1164.66V1730.18L976.55 1770.57L906.584 1730.18V1003.08Z" fill="url(#paint1_linear_501_841)"/>
<path fill-rule="evenodd" clip-rule="evenodd" d="M136.961 639.525L67 679.917V1407.02L136.963 1447.42L206.93 1407.02V1164.66L626.723 1407.02V1730.18L696.688 1770.57L766.654 1730.18V1003.08L136.961 639.525ZM206.93 841.5V1003.08L626.723 1245.45V1083.87L206.93 841.5Z" fill="url(#paint2_linear_501_841)"/>
<path d="M532.997 176.523L457 220.402V220.405M988.999 1844L1065 1800.12M1597 1492.95L1673 1449.07M1673 1449.07L836.999 1930M1673 1449.07V483.69M1521 395.929V395.434L1597.52 439.513L1597 439.81M1521 395.929L1597 439.81M1521 395.929L836.996 1L457 220.405M1597 439.81L1673 483.69M152.999 395.931V395.927L228.997 352.047L229 352.049M152.999 395.931L229 352.049M152.999 395.931L1 483.693M229 352.049L457 220.405M1673 483.69L836.999 962.681M836.999 1930L1 1449.07V483.693M836.999 1930V962.681M1 483.693L836.999 962.681M206.93 437.554V518.341L836.618 881.892L1046.52 760.707V679.92L1116.48 720.314L1326.38 599.128V356.765L836.617 74L766.654 114.393V195.185L1186.45 437.553V518.34L1116.48 558.736L556.757 235.579M206.93 437.554V437.55L276.894 397.156L276.897 397.158M206.93 437.554L276.897 397.158M1536.28 477.946L1466.31 518.341V437.552M1536.28 477.946L1536.75 477.673L1466.31 437.097V437.552M1536.28 477.946L1466.31 437.552M276.897 397.158L836.619 720.314L906.584 679.919V599.13L486.793 356.764V275.973M486.793 275.973V275.971L556.755 235.578L556.757 235.579M486.793 275.973L556.757 235.579M206.93 841.5L626.723 1083.87V1245.45L206.93 1003.08V841.5ZM206.93 1164.66L626.723 1407.02V1730.18L696.688 1770.57L766.654 1730.18V1003.08L136.961 639.525L67 679.917V1407.02L136.963 1447.42L206.93 1407.02V1164.66ZM906.584 1730.18L976.55 1770.57L1046.52 1730.18V1164.66L1536.27 1447.42L1606.24 1407.02V679.921L1536.27 639.525L1466.31 679.917V1245.44L976.549 962.681L906.584 1003.08V1730.18Z" stroke="black"/>
<defs>
<linearGradient id="paint0_linear_501_841" x1="837" y1="74" x2="837" y2="878" gradientUnits="userSpaceOnUse">
<stop stop-color="#F2C4DE"/>
<stop offset="1" stop-color="#F960B6"/>
</linearGradient>
<linearGradient id="paint1_linear_501_841" x1="1608.5" y1="1408" x2="906.5" y2="1003.5" gradientUnits="userSpaceOnUse">
<stop stop-color="#F2CDC4"/>
<stop offset="1" stop-color="#FF4618"/>
</linearGradient>
<linearGradient id="paint2_linear_501_841" x1="66.5" y1="1405.5" x2="762" y2="1003" gradientUnits="userSpaceOnUse">
<stop stop-color="#F2DEA2"/>
<stop offset="1" stop-color="#FFCC32"/>
</linearGradient>
</defs>
</svg>
